<svg width="1004" height="1004" viewBox="0 0 1004 1004" fill="none" xmlns="http://www.w3.org/2000/svg">
<g clip-path="url(#clip0_1_17)">
<rect width="1004" height="1004" fill="#2D2D2D"/>
<path d="M660.805 195.986C594.157 129.338 484.966 129.338 418.318 195.986L287.383 326.92C332.288 314.158 380.976 317.466 423.517 337.319L491.582 269.253C518.053 242.782 561.067 242.782 587.538 269.253C614.008 295.723 614.008 338.737 587.538 365.208L501.982 450.764L445.732 507.013C419.262 533.483 376.247 533.483 349.776 507.013L276.509 580.279C293.526 597.297 313.379 610.058 334.177 618.094C390.428 640.31 455.658 631.802 504.818 593.04C509.545 589.26 514.744 585.006 518.998 580.278L607.39 491.886L660.804 438.472C727.926 371.825 727.926 263.108 660.805 195.986Z" fill="#B7B7B7"/>
<path d="M312.437 640.31L247.206 705.541C220.736 732.012 177.721 732.012 151.251 705.541C124.781 679.07 124.781 636.057 151.251 609.586L293.056 467.782C319.527 441.311 362.541 441.311 389.013 467.782L462.279 394.516C445.263 377.499 425.41 364.736 404.612 356.701C345.526 333.067 276.041 343.938 226.409 388.371C224.046 390.261 221.683 392.625 219.792 394.516L77.9864 536.319C11.3379 602.968 11.3379 712.158 77.9864 778.808C144.635 845.457 253.825 845.457 320.474 778.808L448.573 649.291C383.339 664.415 368.213 662.526 312.437 640.31Z" fill="#B7B7B7"/>
<mask id="mask0_1_17" style="mask-type:alpha" maskUnits="userSpaceOnUse" x="247" y="236" width="800" height="800">
<path d="M613.667 769.333H347" stroke="#B7B7B7" stroke-width="50" stroke-linecap="round"/>
<path d="M647 602.667H347" stroke="#B7B7B7" stroke-width="50" stroke-linecap="round"/>
<path d="M747 719.333L830.333 802.667M830.333 802.667L913.667 719.333M830.333 802.667V536" stroke="#B7B7B7" stroke-width="50" stroke-linecap="round" stroke-linejoin="round"/>
<path d="M347 436H697M913.667 436H838.667" stroke="#B7B7B7" stroke-width="50" stroke-linecap="round"/>
</mask>
<g mask="url(#mask0_1_17)">
<rect x="930.506" y="206" width="421" height="966.623" transform="rotate(45 930.506 206)" fill="#B4B4B4"/>
</g>
</g>
<defs>
<clipPath id="clip0_1_17">
<rect width="1004" height="1004" fill="white"/>
</clipPath>
</defs>
</svg>
